G75*
G70*
%OFA0B0*%
%FSLAX24Y24*%
%IPPOS*%
%LPD*%
%AMOC8*
5,1,8,0,0,1.08239X$1,22.5*
%
%ADD10C,0.0000*%
D10*
X001937Y000500D02*
X001583Y001012D01*
X001583Y011646D01*
X000500Y011646D01*
X000500Y019791D01*
X025500Y019791D01*
X025500Y011646D01*
X024417Y011646D01*
X024417Y001012D01*
X024063Y000500D01*
X001937Y000500D01*
X012016Y017626D02*
X012018Y017688D01*
X012024Y017751D01*
X012034Y017812D01*
X012048Y017873D01*
X012065Y017933D01*
X012086Y017992D01*
X012112Y018049D01*
X012140Y018104D01*
X012172Y018158D01*
X012208Y018209D01*
X012246Y018259D01*
X012288Y018305D01*
X012332Y018349D01*
X012380Y018390D01*
X012429Y018428D01*
X012481Y018462D01*
X012535Y018493D01*
X012591Y018521D01*
X012649Y018545D01*
X012708Y018566D01*
X012768Y018582D01*
X012829Y018595D01*
X012891Y018604D01*
X012953Y018609D01*
X013016Y018610D01*
X013078Y018607D01*
X013140Y018600D01*
X013202Y018589D01*
X013262Y018574D01*
X013322Y018556D01*
X013380Y018534D01*
X013437Y018508D01*
X013492Y018478D01*
X013545Y018445D01*
X013596Y018409D01*
X013644Y018370D01*
X013690Y018327D01*
X013733Y018282D01*
X013773Y018234D01*
X013810Y018184D01*
X013844Y018131D01*
X013875Y018077D01*
X013901Y018021D01*
X013925Y017963D01*
X013944Y017903D01*
X013960Y017843D01*
X013972Y017781D01*
X013980Y017720D01*
X013984Y017657D01*
X013984Y017595D01*
X013980Y017532D01*
X013972Y017471D01*
X013960Y017409D01*
X013944Y017349D01*
X013925Y017289D01*
X013901Y017231D01*
X013875Y017175D01*
X013844Y017121D01*
X013810Y017068D01*
X013773Y017018D01*
X013733Y016970D01*
X013690Y016925D01*
X013644Y016882D01*
X013596Y016843D01*
X013545Y016807D01*
X013492Y016774D01*
X013437Y016744D01*
X013380Y016718D01*
X013322Y016696D01*
X013262Y016678D01*
X013202Y016663D01*
X013140Y016652D01*
X013078Y016645D01*
X013016Y016642D01*
X012953Y016643D01*
X012891Y016648D01*
X012829Y016657D01*
X012768Y016670D01*
X012708Y016686D01*
X012649Y016707D01*
X012591Y016731D01*
X012535Y016759D01*
X012481Y016790D01*
X012429Y016824D01*
X012380Y016862D01*
X012332Y016903D01*
X012288Y016947D01*
X012246Y016993D01*
X012208Y017043D01*
X012172Y017094D01*
X012140Y017148D01*
X012112Y017203D01*
X012086Y017260D01*
X012065Y017319D01*
X012048Y017379D01*
X012034Y017440D01*
X012024Y017501D01*
X012018Y017564D01*
X012016Y017626D01*
M02*
