%
M48
M72
T01C0.0236
T02C0.0320
T03C0.0360
T04C0.0400
T05C0.0591
T06C0.0630
T07C0.1969
%
T01
X5000Y5500
X6750Y5500
X10500Y5250
X11000Y4750
X11500Y4250
X11750Y9500
X12250Y10250
X8500Y12250
X8000Y14250
X8000Y15750
X9000Y16500
X8000Y17250
X8000Y18750
X10000Y18000
X4504Y15000
X3750Y11500
X18000Y9500
T02
X3000Y7000
X3000Y8000
X3000Y9000
X3000Y10000
X3000Y11000
X3000Y12000
X3000Y13000
X6000Y13000
X6000Y12000
X6000Y11000
X6000Y10000
X6000Y9000
X6000Y8000
X6000Y7000
X8000Y7000
X9000Y7000
X10000Y7000
X11000Y7000
X12000Y7000
X13000Y7000
X14000Y7000
X15000Y7000
X16000Y7000
X17000Y7000
X18000Y7000
X19000Y7000
X20000Y7000
X21000Y7000
X22000Y7000
X23000Y7000
X23000Y13000
X22000Y13000
X21000Y13000
X20000Y13000
X19000Y13000
X18000Y13000
X17000Y13000
X16000Y13000
X15000Y13000
X14000Y13000
X13000Y13000
X12000Y13000
X11000Y13000
X10000Y13000
X9000Y13000
X8000Y13000
X15500Y18750
X16500Y18750
X17500Y18750
X18500Y18750
X19500Y18750
X20500Y18750
X21500Y18750
X22500Y18750
X23500Y18750
X24500Y18750
X24500Y15750
X23500Y15750
X22500Y15750
X21500Y15750
X20500Y15750
X19500Y15750
X18500Y15750
X17500Y15750
X16500Y15750
X15500Y15750
T03
X18000Y14000
T04
X3614Y16720
X5386Y16720
X5386Y19280
X3614Y19280
T05
X6000Y18250
X3000Y18250
T06
X2500Y4250
X23500Y4250
T07
X13000Y17626
M30
