G75*
G70*
%OFA0B0*%
%FSLAX24Y24*%
%IPPOS*%
%LPD*%
%AMOC8*
5,1,8,0,0,1.08239X$1,22.5*
%
%ADD10C,0.0100*%
%ADD11C,0.0150*%
%ADD12C,0.0110*%
%ADD13C,0.0000*%
%ADD14C,0.0060*%
%ADD15C,0.0080*%
%ADD16C,0.0040*%
D10*
X009500Y007500D02*
X009500Y009500D01*
X009541Y009484D01*
X009584Y009472D01*
X009627Y009464D01*
X009672Y009459D01*
X009716Y009458D01*
X009760Y009461D01*
X009804Y009467D01*
X009848Y009476D01*
X009890Y009489D01*
X009931Y009506D01*
X009971Y009526D01*
X010009Y009549D01*
X010045Y009575D01*
X010078Y009604D01*
X010109Y009636D01*
X010138Y009670D01*
X010163Y009706D01*
X010186Y009744D01*
X010205Y009784D01*
X010221Y009826D01*
X010234Y009868D01*
X010243Y009912D01*
X010248Y009956D01*
X010250Y010000D01*
X010248Y010044D01*
X010242Y010087D01*
X010233Y010129D01*
X010220Y010171D01*
X010203Y010211D01*
X010183Y010250D01*
X010160Y010287D01*
X010133Y010321D01*
X010104Y010354D01*
X010071Y010383D01*
X010037Y010410D01*
X010000Y010433D01*
X009961Y010453D01*
X009921Y010470D01*
X009879Y010483D01*
X009837Y010492D01*
X009794Y010498D01*
X009750Y010500D01*
X009500Y010500D01*
X009500Y012500D01*
X005648Y015470D02*
X005648Y016030D01*
X005462Y016030D02*
X005835Y016030D01*
X005228Y016030D02*
X004854Y016030D01*
X004854Y015470D01*
X005228Y015470D01*
X005041Y015750D02*
X004854Y015750D01*
X004620Y015657D02*
X004620Y015563D01*
X004526Y015470D01*
X004340Y015470D01*
X004246Y015563D01*
X004340Y015750D02*
X004526Y015750D01*
X004620Y015657D01*
X004620Y015937D02*
X004526Y016030D01*
X004340Y016030D01*
X004246Y015937D01*
X004246Y015844D01*
X004340Y015750D01*
X004012Y016030D02*
X003638Y016030D01*
X003638Y015470D01*
X004012Y015470D01*
X003825Y015750D02*
X003638Y015750D01*
X003404Y015750D02*
X003404Y015937D01*
X003311Y016030D01*
X003031Y016030D01*
X003031Y015470D01*
X003031Y015657D02*
X003311Y015657D01*
X003404Y015750D01*
X003218Y015657D02*
X003404Y015470D01*
X015072Y005937D02*
X015165Y006030D01*
X015352Y006030D01*
X015445Y005937D01*
X015445Y005844D01*
X015352Y005750D01*
X015165Y005750D01*
X015072Y005844D01*
X015072Y005937D01*
X015165Y005750D02*
X015072Y005657D01*
X015072Y005563D01*
X015165Y005470D01*
X015352Y005470D01*
X015445Y005563D01*
X015445Y005657D01*
X015352Y005750D01*
X014861Y005563D02*
X014861Y005470D01*
X014768Y005470D01*
X014768Y005563D01*
X014861Y005563D01*
X014534Y005563D02*
X014534Y005844D01*
X014160Y005844D02*
X014160Y005563D01*
X014254Y005470D01*
X014347Y005563D01*
X014440Y005470D01*
X014534Y005563D01*
X014390Y005094D02*
X014109Y005094D01*
X014109Y004720D01*
X013875Y004813D02*
X013875Y005000D01*
X013782Y005094D01*
X013595Y005094D01*
X013502Y005000D01*
X013502Y004813D01*
X013595Y004720D01*
X013782Y004720D01*
X013875Y004813D01*
X014390Y005094D02*
X014483Y005000D01*
X014483Y004720D01*
X014717Y004813D02*
X014811Y004720D01*
X015091Y004720D01*
X015325Y004813D02*
X015325Y005000D01*
X015418Y005094D01*
X015605Y005094D01*
X015699Y005000D01*
X015699Y004907D01*
X015325Y004907D01*
X015325Y004813D02*
X015418Y004720D01*
X015605Y004720D01*
X015933Y004813D02*
X015933Y005094D01*
X015933Y004813D02*
X016026Y004720D01*
X016306Y004720D01*
X016306Y005094D01*
X016540Y005094D02*
X016821Y005094D01*
X016914Y005000D01*
X016914Y004813D01*
X016821Y004720D01*
X016540Y004720D01*
X016540Y004533D02*
X016540Y005094D01*
X016474Y005470D02*
X016287Y005470D01*
X016381Y005470D02*
X016381Y005844D01*
X016287Y005844D01*
X016381Y006030D02*
X016381Y006124D01*
X016053Y005750D02*
X015960Y005844D01*
X015679Y005844D01*
X015679Y006030D02*
X015679Y005470D01*
X015960Y005470D01*
X016053Y005563D01*
X016053Y005750D01*
X016692Y005844D02*
X016879Y005844D01*
X016786Y005937D02*
X016786Y005563D01*
X016879Y005470D01*
X017097Y005563D02*
X017097Y005750D01*
X017191Y005844D01*
X017471Y005844D01*
X017705Y005750D02*
X017799Y005844D01*
X017985Y005844D01*
X018079Y005750D01*
X018079Y005470D01*
X018313Y005470D02*
X018500Y005470D01*
X018406Y005470D02*
X018406Y005844D01*
X018313Y005844D01*
X018406Y006030D02*
X018406Y006124D01*
X018718Y005844D02*
X018998Y005844D01*
X019092Y005750D01*
X019092Y005563D01*
X018998Y005470D01*
X018718Y005470D01*
X018718Y005283D02*
X018718Y005844D01*
X019326Y005563D02*
X019419Y005563D01*
X019419Y005470D01*
X019326Y005470D01*
X019326Y005563D01*
X019630Y005470D02*
X019816Y005470D01*
X019723Y005470D02*
X019723Y005844D01*
X019630Y005844D01*
X019723Y006030D02*
X019723Y006124D01*
X020035Y005844D02*
X020315Y005844D01*
X020408Y005750D01*
X020408Y005470D01*
X020280Y005187D02*
X020280Y004813D01*
X020373Y004720D01*
X020592Y004813D02*
X020592Y005000D01*
X020685Y005094D01*
X020872Y005094D01*
X020965Y005000D01*
X020965Y004907D01*
X020592Y004907D01*
X020592Y004813D02*
X020685Y004720D01*
X020872Y004720D01*
X021200Y004720D02*
X021200Y004813D01*
X021293Y004813D01*
X021293Y004720D01*
X021200Y004720D01*
X021503Y004813D02*
X021597Y004720D01*
X021784Y004720D01*
X021877Y004813D01*
X021877Y005000D01*
X021784Y005094D01*
X021597Y005094D01*
X021503Y005000D01*
X021503Y004813D01*
X022111Y004720D02*
X022111Y005094D01*
X022111Y004907D02*
X022298Y005094D01*
X022391Y005094D01*
X022618Y005000D02*
X022618Y004813D01*
X022711Y004720D01*
X022991Y004720D01*
X022991Y004627D02*
X022991Y005094D01*
X022711Y005094D01*
X022618Y005000D01*
X022991Y004627D02*
X022898Y004533D01*
X022804Y004533D01*
X021421Y005563D02*
X021421Y005750D01*
X021328Y005844D01*
X021141Y005844D01*
X021048Y005750D01*
X021048Y005563D01*
X021141Y005470D01*
X021328Y005470D01*
X021421Y005563D01*
X020829Y005750D02*
X020642Y005750D01*
X020736Y005937D02*
X020736Y005470D01*
X020736Y005937D02*
X020829Y006030D01*
X020035Y005844D02*
X020035Y005470D01*
X019953Y005094D02*
X019953Y004627D01*
X019859Y004533D01*
X019766Y004533D01*
X019672Y004720D02*
X019953Y004720D01*
X019672Y004720D02*
X019579Y004813D01*
X019579Y005094D01*
X019345Y005000D02*
X019345Y004813D01*
X019251Y004720D01*
X018971Y004720D01*
X018971Y005280D01*
X018971Y005094D02*
X019251Y005094D01*
X019345Y005000D01*
X018737Y005000D02*
X018737Y004720D01*
X018457Y004720D01*
X018364Y004813D01*
X018457Y004907D01*
X018737Y004907D01*
X018737Y005000D02*
X018644Y005094D01*
X018457Y005094D01*
X018129Y005000D02*
X018129Y004720D01*
X017756Y004720D02*
X017756Y005094D01*
X018036Y005094D01*
X018129Y005000D01*
X017522Y005000D02*
X017522Y004813D01*
X017428Y004720D01*
X017241Y004720D01*
X017148Y004813D01*
X017148Y005000D01*
X017241Y005094D01*
X017428Y005094D01*
X017522Y005000D01*
X017471Y005470D02*
X017191Y005470D01*
X017097Y005563D01*
X017705Y005470D02*
X017705Y006030D01*
X020187Y005094D02*
X020373Y005094D01*
X015091Y005094D02*
X014811Y005094D01*
X014717Y005000D01*
X014717Y004813D01*
X013926Y005563D02*
X013926Y005844D01*
X013926Y005563D02*
X013833Y005470D01*
X013739Y005563D01*
X013646Y005470D01*
X013552Y005563D01*
X013552Y005844D01*
X013318Y005844D02*
X013318Y005563D01*
X013225Y005470D01*
X013132Y005563D01*
X013038Y005470D01*
X012945Y005563D01*
X012945Y005844D01*
X012964Y005094D02*
X012964Y004813D01*
X012870Y004720D01*
X012777Y004813D01*
X012684Y004720D01*
X012590Y004813D01*
X012590Y005094D01*
X012356Y005094D02*
X012356Y004813D01*
X012263Y004720D01*
X012169Y004813D01*
X012076Y004720D01*
X011982Y004813D01*
X011982Y005094D01*
X011748Y005094D02*
X011748Y004813D01*
X011655Y004720D01*
X011562Y004813D01*
X011468Y004720D01*
X011375Y004813D01*
X011375Y005094D01*
X013198Y004813D02*
X013198Y004720D01*
X013291Y004720D01*
X013291Y004813D01*
X013198Y004813D01*
D11*
X013534Y008325D02*
X013392Y008467D01*
X013959Y009034D01*
X013959Y008467D01*
X013817Y008325D01*
X013534Y008325D01*
X013392Y008467D02*
X013392Y009034D01*
X013534Y009176D01*
X013817Y009176D01*
X013959Y009034D01*
X014313Y008892D02*
X014596Y009176D01*
X014596Y008325D01*
X014313Y008325D02*
X014880Y008325D01*
X015233Y008467D02*
X015801Y009034D01*
X015801Y008467D01*
X015659Y008325D01*
X015375Y008325D01*
X015233Y008467D01*
X015233Y009034D01*
X015375Y009176D01*
X015659Y009176D01*
X015801Y009034D01*
X016154Y008325D02*
X016721Y009176D01*
X017075Y009034D02*
X017217Y009176D01*
X017500Y009176D01*
X017642Y009034D01*
X017075Y008467D01*
X017217Y008325D01*
X017500Y008325D01*
X017642Y008467D01*
X017642Y009034D01*
X017996Y009034D02*
X018138Y009176D01*
X018421Y009176D01*
X018563Y009034D01*
X018563Y008892D01*
X017996Y008325D01*
X018563Y008325D01*
X018917Y008467D02*
X019484Y009034D01*
X019484Y008467D01*
X019342Y008325D01*
X019058Y008325D01*
X018917Y008467D01*
X018917Y009034D01*
X019058Y009176D01*
X019342Y009176D01*
X019484Y009034D01*
X019837Y008325D02*
X020405Y009176D01*
X020758Y009034D02*
X020900Y009176D01*
X021184Y009176D01*
X021325Y009034D01*
X020758Y008467D01*
X020900Y008325D01*
X021184Y008325D01*
X021325Y008467D01*
X021325Y009034D01*
X021679Y008750D02*
X022246Y008750D01*
X022104Y008325D02*
X022104Y009176D01*
X021679Y008750D01*
X020758Y008467D02*
X020758Y009034D01*
X020900Y009825D02*
X020758Y009967D01*
X021325Y010534D01*
X021325Y009967D01*
X021184Y009825D01*
X020900Y009825D01*
X020758Y009967D02*
X020758Y010534D01*
X020900Y010676D01*
X021184Y010676D01*
X021325Y010534D01*
X021679Y010250D02*
X022246Y010250D01*
X022104Y009825D02*
X022104Y010676D01*
X021679Y010250D01*
X022600Y009967D02*
X022741Y009825D01*
X023025Y009825D01*
X023167Y009967D01*
X023167Y010534D01*
X022600Y009967D01*
X022600Y010534D01*
X022741Y010676D01*
X023025Y010676D01*
X023167Y010534D01*
X023025Y009176D02*
X022741Y009176D01*
X022600Y009034D01*
X022600Y008467D01*
X023167Y009034D01*
X023167Y008467D01*
X023025Y008325D01*
X022741Y008325D01*
X022600Y008467D01*
X023167Y009034D02*
X023025Y009176D01*
X020405Y010676D02*
X019837Y009825D01*
X019484Y009967D02*
X019342Y009825D01*
X019058Y009825D01*
X018917Y009967D01*
X019484Y010534D01*
X019484Y009967D01*
X019484Y010534D02*
X019342Y010676D01*
X019058Y010676D01*
X018917Y010534D01*
X018917Y009967D01*
X018563Y009825D02*
X017996Y009825D01*
X018563Y010392D01*
X018563Y010534D01*
X018421Y010676D01*
X018138Y010676D01*
X017996Y010534D01*
X017642Y010534D02*
X017642Y009967D01*
X017500Y009825D01*
X017217Y009825D01*
X017075Y009967D01*
X017642Y010534D01*
X017500Y010676D01*
X017217Y010676D01*
X017075Y010534D01*
X017075Y009967D01*
X016721Y010676D02*
X016154Y009825D01*
X015801Y009967D02*
X015659Y009825D01*
X015375Y009825D01*
X015233Y009967D01*
X015801Y010534D01*
X015801Y009967D01*
X015801Y010534D02*
X015659Y010676D01*
X015375Y010676D01*
X015233Y010534D01*
X015233Y009967D01*
X014880Y009825D02*
X014313Y009825D01*
X013959Y009967D02*
X013817Y009825D01*
X013534Y009825D01*
X013392Y009967D01*
X013959Y010534D01*
X013959Y009967D01*
X014313Y010392D02*
X014596Y010676D01*
X014596Y009825D01*
X013959Y010534D02*
X013817Y010676D01*
X013534Y010676D01*
X013392Y010534D01*
X013392Y009967D01*
X013038Y009967D02*
X012896Y009825D01*
X012613Y009825D01*
X012471Y009967D01*
X012471Y010534D01*
X012613Y010676D01*
X012896Y010676D01*
X013038Y010534D01*
X012117Y010534D02*
X011550Y009967D01*
X011550Y009825D01*
X011197Y009825D02*
X010629Y009825D01*
X011197Y010392D01*
X011197Y010534D01*
X011055Y010676D01*
X010771Y010676D01*
X010629Y010534D01*
X011550Y010676D02*
X012117Y010676D01*
X012117Y010534D01*
X011976Y009176D02*
X011692Y009176D01*
X011550Y009034D01*
X011550Y008892D01*
X011692Y008750D01*
X012117Y008750D01*
X012117Y008467D02*
X012117Y009034D01*
X011976Y009176D01*
X012471Y009176D02*
X013038Y009176D01*
X012471Y009176D02*
X012471Y008325D01*
X012117Y008467D02*
X011976Y008325D01*
X011692Y008325D01*
X011550Y008467D01*
X011197Y008325D02*
X010629Y008325D01*
X011197Y008892D01*
X011197Y009034D01*
X011055Y009176D01*
X010771Y009176D01*
X010629Y009034D01*
X012471Y008750D02*
X012755Y008750D01*
X014313Y011325D02*
X014880Y011892D01*
X014880Y012034D01*
X014738Y012176D01*
X014454Y012176D01*
X014313Y012034D01*
X014313Y011325D02*
X014880Y011325D01*
X015233Y011325D02*
X015233Y011467D01*
X015801Y012034D01*
X015801Y012176D01*
X015233Y012176D01*
X016154Y012034D02*
X016154Y011467D01*
X016296Y011325D01*
X016580Y011325D01*
X016721Y011467D01*
X017075Y011467D02*
X017217Y011325D01*
X017500Y011325D01*
X017642Y011467D01*
X017642Y011750D01*
X017500Y011892D01*
X017359Y011892D01*
X017075Y011750D01*
X017075Y012176D01*
X017642Y012176D01*
X017996Y011892D02*
X018279Y012176D01*
X018279Y011325D01*
X017996Y011325D02*
X018563Y011325D01*
X018917Y011325D02*
X019484Y011892D01*
X019484Y012034D01*
X019342Y012176D01*
X019058Y012176D01*
X018917Y012034D01*
X018917Y011325D02*
X019484Y011325D01*
X016721Y012034D02*
X016580Y012176D01*
X016296Y012176D01*
X016154Y012034D01*
X017075Y009034D02*
X017075Y008467D01*
X016852Y016825D02*
X016852Y016967D01*
X017419Y017534D01*
X017419Y017676D01*
X016852Y017676D01*
X017773Y017250D02*
X018340Y017250D01*
X018198Y016825D02*
X018198Y017676D01*
X017773Y017250D01*
X018694Y016825D02*
X019261Y016825D01*
X019615Y016967D02*
X019756Y016825D01*
X020040Y016825D01*
X020182Y016967D01*
X020182Y017109D01*
X020040Y017250D01*
X019756Y017250D01*
X019615Y017392D01*
X019615Y017534D01*
X019756Y017676D01*
X020040Y017676D01*
X020182Y017534D01*
X020535Y017534D02*
X020677Y017676D01*
X020961Y017676D01*
X021103Y017534D01*
X021103Y017392D01*
X020535Y016825D01*
X021103Y016825D01*
X021456Y016825D02*
X021456Y016967D01*
X022023Y017534D01*
X022023Y017676D01*
X021456Y017676D01*
X022377Y017534D02*
X022519Y017676D01*
X022802Y017676D01*
X022944Y017534D01*
X022944Y017392D01*
X022802Y017250D01*
X022944Y017109D01*
X022944Y016967D01*
X022802Y016825D01*
X022519Y016825D01*
X022377Y016967D01*
X022661Y017250D02*
X022802Y017250D01*
X018694Y016825D02*
X018694Y017676D01*
X004925Y012484D02*
X004925Y011917D01*
X004358Y012484D01*
X004216Y012484D01*
X004074Y012342D01*
X004074Y012058D01*
X004216Y011917D01*
X004216Y011563D02*
X004783Y010996D01*
X004925Y011138D01*
X004925Y011421D01*
X004783Y011563D01*
X004216Y011563D01*
X004074Y011421D01*
X004074Y011138D01*
X004216Y010996D01*
X004783Y010996D01*
X004783Y010642D02*
X004925Y010500D01*
X004925Y010217D01*
X004783Y010075D01*
X004500Y010217D02*
X004500Y010500D01*
X004641Y010642D01*
X004783Y010642D01*
X004500Y010217D02*
X004358Y010075D01*
X004216Y010075D01*
X004074Y010217D01*
X004074Y010500D01*
X004216Y010642D01*
X004925Y009721D02*
X004925Y009154D01*
X004074Y009154D01*
X004500Y008801D02*
X004500Y008233D01*
X004074Y008659D01*
X004925Y008659D01*
X004216Y007880D02*
X004074Y007880D01*
X004074Y007313D01*
X004216Y007880D02*
X004783Y007313D01*
X004925Y007313D01*
D12*
X008413Y013725D02*
X008630Y013725D01*
X008739Y013833D01*
X009005Y013833D02*
X009005Y014050D01*
X009330Y014050D01*
X009439Y013942D01*
X009439Y013833D01*
X009330Y013725D01*
X009113Y013725D01*
X009005Y013833D01*
X009005Y014050D02*
X009222Y014267D01*
X009439Y014376D01*
X009330Y014675D02*
X009113Y014675D01*
X009005Y014783D01*
X009005Y015217D01*
X009113Y015326D01*
X009330Y015326D01*
X009439Y015217D01*
X009439Y014783D01*
X009330Y014675D01*
X009705Y014675D02*
X009705Y015326D01*
X009921Y015109D01*
X010138Y015326D01*
X010138Y014675D01*
X010404Y014675D02*
X010404Y015326D01*
X010730Y015326D01*
X010838Y015217D01*
X010838Y015000D01*
X010730Y014892D01*
X010404Y014892D01*
X010030Y014376D02*
X009705Y014050D01*
X010138Y014050D01*
X010030Y013725D02*
X010030Y014376D01*
X011104Y014267D02*
X011104Y013833D01*
X011213Y013725D01*
X011429Y013725D01*
X011538Y013833D01*
X011804Y013725D02*
X011804Y014159D01*
X012021Y014376D01*
X012238Y014159D01*
X012238Y013725D01*
X012504Y013725D02*
X012504Y014376D01*
X012829Y014376D01*
X012937Y014267D01*
X012937Y014050D01*
X012829Y013942D01*
X012504Y013942D01*
X012721Y013942D02*
X012937Y013725D01*
X013420Y013725D02*
X013420Y014376D01*
X013204Y014376D02*
X013637Y014376D01*
X013903Y014376D02*
X014229Y014376D01*
X014337Y014267D01*
X014337Y014050D01*
X014229Y013942D01*
X013903Y013942D01*
X013903Y013725D02*
X013903Y014376D01*
X014104Y014675D02*
X013670Y014675D01*
X013670Y015326D01*
X013404Y015217D02*
X013404Y015109D01*
X013296Y015000D01*
X012970Y015000D01*
X013296Y015000D02*
X013404Y014892D01*
X013404Y014783D01*
X013296Y014675D01*
X012970Y014675D01*
X012970Y015326D01*
X013296Y015326D01*
X013404Y015217D01*
X013404Y015625D02*
X012970Y015625D01*
X012970Y016276D01*
X013404Y016276D01*
X013670Y016167D02*
X013670Y016059D01*
X013779Y015950D01*
X013995Y015950D01*
X014104Y015842D01*
X014104Y015733D01*
X013995Y015625D01*
X013779Y015625D01*
X013670Y015733D01*
X013670Y016167D02*
X013779Y016276D01*
X013995Y016276D01*
X014104Y016167D01*
X014370Y016276D02*
X014370Y015625D01*
X014370Y015842D02*
X014804Y016276D01*
X014478Y015950D02*
X014804Y015625D01*
X014804Y015326D02*
X014370Y015326D01*
X014370Y014675D01*
X014804Y014675D01*
X014820Y014376D02*
X014603Y014376D01*
X014712Y014376D02*
X014712Y013725D01*
X014820Y013725D02*
X014603Y013725D01*
X014337Y013725D02*
X014120Y013942D01*
X015070Y013725D02*
X015395Y013725D01*
X015503Y013833D01*
X015503Y014267D01*
X015395Y014376D01*
X015070Y014376D01*
X015070Y013725D01*
X015770Y013833D02*
X015878Y013725D01*
X016095Y013725D01*
X016203Y013833D01*
X016203Y014050D01*
X015986Y014050D01*
X015770Y014267D02*
X015770Y013833D01*
X015770Y014267D02*
X015878Y014376D01*
X016095Y014376D01*
X016203Y014267D01*
X016469Y014376D02*
X016469Y013725D01*
X016903Y013725D01*
X016686Y014050D02*
X016469Y014050D01*
X016469Y014376D02*
X016903Y014376D01*
X014587Y015000D02*
X014370Y015000D01*
X013187Y015950D02*
X012970Y015950D01*
X012704Y015733D02*
X012704Y016167D01*
X012596Y016276D01*
X012271Y016276D01*
X012271Y015625D01*
X012596Y015625D01*
X012704Y015733D01*
X012721Y015326D02*
X012504Y015326D01*
X012612Y015326D02*
X012612Y014675D01*
X012504Y014675D02*
X012721Y014675D01*
X012021Y014675D02*
X012021Y015326D01*
X011804Y015326D02*
X012238Y015326D01*
X011538Y015109D02*
X011538Y014675D01*
X011429Y014376D02*
X011213Y014376D01*
X011104Y014267D01*
X011429Y014376D02*
X011538Y014267D01*
X011804Y014050D02*
X012238Y014050D01*
X011104Y014675D02*
X011104Y015109D01*
X011321Y015326D01*
X011538Y015109D01*
X011538Y015000D02*
X011104Y015000D01*
X011196Y015625D02*
X010979Y015625D01*
X010871Y015733D01*
X010871Y016167D01*
X010979Y016276D01*
X011196Y016276D01*
X011305Y016167D01*
X011305Y015733D02*
X011196Y015625D01*
X010621Y015625D02*
X010404Y015625D01*
X010513Y015625D02*
X010513Y016276D01*
X010621Y016276D02*
X010404Y016276D01*
X010138Y016167D02*
X010030Y016276D01*
X009813Y016276D01*
X009705Y016167D01*
X009705Y015733D01*
X009813Y015625D01*
X010030Y015625D01*
X010138Y015733D01*
X010138Y015950D01*
X009921Y015950D01*
X009439Y015950D02*
X009005Y015950D01*
X009005Y016059D02*
X009222Y016276D01*
X009439Y016059D01*
X009439Y015625D01*
X009005Y015625D02*
X009005Y016059D01*
X008739Y016276D02*
X008739Y015625D01*
X008630Y015326D02*
X008413Y015326D01*
X008305Y015217D01*
X008305Y014783D01*
X008413Y014675D01*
X008630Y014675D01*
X008739Y014783D01*
X008630Y014376D02*
X008413Y014376D01*
X008305Y014267D01*
X008305Y013833D01*
X008413Y013725D01*
X008739Y014267D02*
X008630Y014376D01*
X008739Y015217D02*
X008630Y015326D01*
X008305Y015625D02*
X008305Y016276D01*
X008522Y016059D01*
X008739Y016276D01*
D13*
X001583Y001012D02*
X001937Y000500D01*
X024063Y000500D01*
X024417Y001012D01*
X024417Y011646D01*
X025500Y011646D01*
X025500Y019791D01*
X000500Y019791D01*
X000500Y011646D01*
X001583Y011646D01*
X001583Y001012D01*
X012016Y017626D02*
X012018Y017688D01*
X012024Y017751D01*
X012034Y017812D01*
X012048Y017873D01*
X012065Y017933D01*
X012086Y017992D01*
X012112Y018049D01*
X012140Y018104D01*
X012172Y018158D01*
X012208Y018209D01*
X012246Y018259D01*
X012288Y018305D01*
X012332Y018349D01*
X012380Y018390D01*
X012429Y018428D01*
X012481Y018462D01*
X012535Y018493D01*
X012591Y018521D01*
X012649Y018545D01*
X012708Y018566D01*
X012768Y018582D01*
X012829Y018595D01*
X012891Y018604D01*
X012953Y018609D01*
X013016Y018610D01*
X013078Y018607D01*
X013140Y018600D01*
X013202Y018589D01*
X013262Y018574D01*
X013322Y018556D01*
X013380Y018534D01*
X013437Y018508D01*
X013492Y018478D01*
X013545Y018445D01*
X013596Y018409D01*
X013644Y018370D01*
X013690Y018327D01*
X013733Y018282D01*
X013773Y018234D01*
X013810Y018184D01*
X013844Y018131D01*
X013875Y018077D01*
X013901Y018021D01*
X013925Y017963D01*
X013944Y017903D01*
X013960Y017843D01*
X013972Y017781D01*
X013980Y017720D01*
X013984Y017657D01*
X013984Y017595D01*
X013980Y017532D01*
X013972Y017471D01*
X013960Y017409D01*
X013944Y017349D01*
X013925Y017289D01*
X013901Y017231D01*
X013875Y017175D01*
X013844Y017121D01*
X013810Y017068D01*
X013773Y017018D01*
X013733Y016970D01*
X013690Y016925D01*
X013644Y016882D01*
X013596Y016843D01*
X013545Y016807D01*
X013492Y016774D01*
X013437Y016744D01*
X013380Y016718D01*
X013322Y016696D01*
X013262Y016678D01*
X013202Y016663D01*
X013140Y016652D01*
X013078Y016645D01*
X013016Y016642D01*
X012953Y016643D01*
X012891Y016648D01*
X012829Y016657D01*
X012768Y016670D01*
X012708Y016686D01*
X012649Y016707D01*
X012591Y016731D01*
X012535Y016759D01*
X012481Y016790D01*
X012429Y016824D01*
X012380Y016862D01*
X012332Y016903D01*
X012288Y016947D01*
X012246Y016993D01*
X012208Y017043D01*
X012172Y017094D01*
X012140Y017148D01*
X012112Y017203D01*
X012086Y017260D01*
X012065Y017319D01*
X012048Y017379D01*
X012034Y017440D01*
X012024Y017501D01*
X012018Y017564D01*
X012016Y017626D01*
D14*
X015000Y017650D02*
X015000Y018400D01*
X025000Y018400D01*
X025000Y016100D01*
X015000Y016100D01*
X015000Y016850D01*
X015039Y016852D01*
X015078Y016858D01*
X015116Y016867D01*
X015153Y016880D01*
X015189Y016897D01*
X015222Y016917D01*
X015254Y016941D01*
X015283Y016967D01*
X015309Y016996D01*
X015333Y017028D01*
X015353Y017061D01*
X015370Y017097D01*
X015383Y017134D01*
X015392Y017172D01*
X015398Y017211D01*
X015400Y017250D01*
X015398Y017289D01*
X015392Y017328D01*
X015383Y017366D01*
X015370Y017403D01*
X015353Y017439D01*
X015333Y017472D01*
X015309Y017504D01*
X015283Y017533D01*
X015254Y017559D01*
X015222Y017583D01*
X015189Y017603D01*
X015153Y017620D01*
X015116Y017633D01*
X015078Y017642D01*
X015039Y017648D01*
X015000Y017650D01*
X017700Y014300D02*
X017700Y014200D01*
X017700Y014300D02*
X017800Y014300D01*
X018200Y014300D02*
X018300Y014300D01*
X018300Y014200D01*
X018300Y013800D02*
X018300Y013700D01*
X018200Y013700D01*
X017800Y013700D02*
X017700Y013700D01*
X017700Y013800D01*
X023650Y012600D02*
X007350Y012600D01*
X007350Y010500D01*
X007394Y010498D01*
X007437Y010492D01*
X007479Y010483D01*
X007521Y010470D01*
X007561Y010453D01*
X007600Y010433D01*
X007637Y010410D01*
X007671Y010383D01*
X007704Y010354D01*
X007733Y010321D01*
X007760Y010287D01*
X007783Y010250D01*
X007803Y010211D01*
X007820Y010171D01*
X007833Y010129D01*
X007842Y010087D01*
X007848Y010044D01*
X007850Y010000D01*
X007848Y009956D01*
X007842Y009913D01*
X007833Y009871D01*
X007820Y009829D01*
X007803Y009789D01*
X007783Y009750D01*
X007760Y009713D01*
X007733Y009679D01*
X007704Y009646D01*
X007671Y009617D01*
X007637Y009590D01*
X007600Y009567D01*
X007561Y009547D01*
X007521Y009530D01*
X007479Y009517D01*
X007437Y009508D01*
X007394Y009502D01*
X007350Y009500D01*
X007350Y007400D01*
X023650Y007400D01*
X023650Y012600D01*
X005650Y013500D02*
X005650Y006500D01*
X003350Y006500D01*
X003350Y013500D01*
X004100Y013500D01*
X004102Y013461D01*
X004108Y013422D01*
X004117Y013384D01*
X004130Y013347D01*
X004147Y013311D01*
X004167Y013278D01*
X004191Y013246D01*
X004217Y013217D01*
X004246Y013191D01*
X004278Y013167D01*
X004311Y013147D01*
X004347Y013130D01*
X004384Y013117D01*
X004422Y013108D01*
X004461Y013102D01*
X004500Y013100D01*
X004539Y013102D01*
X004578Y013108D01*
X004616Y013117D01*
X004653Y013130D01*
X004689Y013147D01*
X004722Y013167D01*
X004754Y013191D01*
X004783Y013217D01*
X004809Y013246D01*
X004833Y013278D01*
X004853Y013311D01*
X004870Y013347D01*
X004883Y013384D01*
X004892Y013422D01*
X004898Y013461D01*
X004900Y013500D01*
X005650Y013500D01*
D15*
X004894Y016780D02*
X004106Y016780D01*
X003280Y017409D02*
X003280Y018591D01*
X004106Y019220D02*
X004894Y019220D01*
X005720Y018591D02*
X005720Y017409D01*
X003811Y018000D02*
X003813Y018052D01*
X003819Y018104D01*
X003829Y018155D01*
X003842Y018205D01*
X003860Y018255D01*
X003881Y018302D01*
X003905Y018348D01*
X003934Y018392D01*
X003965Y018434D01*
X003999Y018473D01*
X004036Y018510D01*
X004076Y018543D01*
X004119Y018574D01*
X004163Y018601D01*
X004209Y018625D01*
X004258Y018645D01*
X004307Y018661D01*
X004358Y018674D01*
X004409Y018683D01*
X004461Y018688D01*
X004513Y018689D01*
X004565Y018686D01*
X004617Y018679D01*
X004668Y018668D01*
X004718Y018654D01*
X004767Y018635D01*
X004814Y018613D01*
X004859Y018588D01*
X004903Y018559D01*
X004944Y018527D01*
X004983Y018492D01*
X005018Y018454D01*
X005051Y018413D01*
X005081Y018371D01*
X005107Y018326D01*
X005130Y018279D01*
X005149Y018230D01*
X005165Y018180D01*
X005177Y018130D01*
X005185Y018078D01*
X005189Y018026D01*
X005189Y017974D01*
X005185Y017922D01*
X005177Y017870D01*
X005165Y017820D01*
X005149Y017770D01*
X005130Y017721D01*
X005107Y017674D01*
X005081Y017629D01*
X005051Y017587D01*
X005018Y017546D01*
X004983Y017508D01*
X004944Y017473D01*
X004903Y017441D01*
X004859Y017412D01*
X004814Y017387D01*
X004767Y017365D01*
X004718Y017346D01*
X004668Y017332D01*
X004617Y017321D01*
X004565Y017314D01*
X004513Y017311D01*
X004461Y017312D01*
X004409Y017317D01*
X004358Y017326D01*
X004307Y017339D01*
X004258Y017355D01*
X004209Y017375D01*
X004163Y017399D01*
X004119Y017426D01*
X004076Y017457D01*
X004036Y017490D01*
X003999Y017527D01*
X003965Y017566D01*
X003934Y017608D01*
X003905Y017652D01*
X003881Y017698D01*
X003860Y017745D01*
X003842Y017795D01*
X003829Y017845D01*
X003819Y017896D01*
X003813Y017948D01*
X003811Y018000D01*
D16*
X017578Y014844D02*
X017578Y014657D01*
X017625Y014610D01*
X017718Y014610D01*
X017765Y014657D01*
X017873Y014610D02*
X018060Y014610D01*
X018167Y014610D02*
X018354Y014797D01*
X018354Y014844D01*
X018307Y014890D01*
X018214Y014890D01*
X018167Y014844D01*
X018060Y014890D02*
X017873Y014890D01*
X017873Y014610D01*
X017873Y014750D02*
X017966Y014750D01*
X017765Y014844D02*
X017718Y014890D01*
X017625Y014890D01*
X017578Y014844D01*
X018167Y014610D02*
X018354Y014610D01*
M02*
