G75*
G70*
%OFA0B0*%
%FSLAX24Y24*%
%IPPOS*%
%LPD*%
%AMOC8*
5,1,8,0,0,1.08239X$1,22.5*
%
%ADD10C,0.0240*%
%ADD11C,0.0320*%
%ADD12C,0.0000*%
%ADD13C,0.2009*%
%ADD14C,0.0560*%
%ADD15R,0.0290X0.0540*%
%ADD16R,0.1040X0.2040*%
%ADD17OC8,0.0640*%
%ADD18OC8,0.0670*%
%ADD19R,0.0540X0.0290*%
%ADD20OC8,0.1040*%
%ADD21C,0.0926*%
D10*
X004000Y010500D02*
X004000Y010750D01*
D11*
X003664Y000837D02*
X003344Y000837D01*
X003344Y003057D01*
X003664Y003057D01*
X003664Y000837D01*
X003664Y001156D02*
X003344Y001156D01*
X003344Y001475D02*
X003664Y001475D01*
X003664Y001794D02*
X003344Y001794D01*
X003344Y002113D02*
X003664Y002113D01*
X003664Y002432D02*
X003344Y002432D01*
X003344Y002751D02*
X003664Y002751D01*
X004344Y000837D02*
X004664Y000837D01*
X004344Y000837D02*
X004344Y003057D01*
X004664Y003057D01*
X004664Y000837D01*
X004664Y001156D02*
X004344Y001156D01*
X004344Y001475D02*
X004664Y001475D01*
X004664Y001794D02*
X004344Y001794D01*
X004344Y002113D02*
X004664Y002113D01*
X004664Y002432D02*
X004344Y002432D01*
X004344Y002751D02*
X004664Y002751D01*
X005344Y000837D02*
X005664Y000837D01*
X005344Y000837D02*
X005344Y003057D01*
X005664Y003057D01*
X005664Y000837D01*
X005664Y001156D02*
X005344Y001156D01*
X005344Y001475D02*
X005664Y001475D01*
X005664Y001794D02*
X005344Y001794D01*
X005344Y002113D02*
X005664Y002113D01*
X005664Y002432D02*
X005344Y002432D01*
X005344Y002751D02*
X005664Y002751D01*
X006344Y000837D02*
X006664Y000837D01*
X006344Y000837D02*
X006344Y003057D01*
X006664Y003057D01*
X006664Y000837D01*
X006664Y001156D02*
X006344Y001156D01*
X006344Y001475D02*
X006664Y001475D01*
X006664Y001794D02*
X006344Y001794D01*
X006344Y002113D02*
X006664Y002113D01*
X006664Y002432D02*
X006344Y002432D01*
X006344Y002751D02*
X006664Y002751D01*
X007344Y000837D02*
X007664Y000837D01*
X007344Y000837D02*
X007344Y003057D01*
X007664Y003057D01*
X007664Y000837D01*
X007664Y001156D02*
X007344Y001156D01*
X007344Y001475D02*
X007664Y001475D01*
X007664Y001794D02*
X007344Y001794D01*
X007344Y002113D02*
X007664Y002113D01*
X007664Y002432D02*
X007344Y002432D01*
X007344Y002751D02*
X007664Y002751D01*
X008344Y000837D02*
X008664Y000837D01*
X008344Y000837D02*
X008344Y003057D01*
X008664Y003057D01*
X008664Y000837D01*
X008664Y001156D02*
X008344Y001156D01*
X008344Y001475D02*
X008664Y001475D01*
X008664Y001794D02*
X008344Y001794D01*
X008344Y002113D02*
X008664Y002113D01*
X008664Y002432D02*
X008344Y002432D01*
X008344Y002751D02*
X008664Y002751D01*
X009344Y000837D02*
X009664Y000837D01*
X009344Y000837D02*
X009344Y003057D01*
X009664Y003057D01*
X009664Y000837D01*
X009664Y001156D02*
X009344Y001156D01*
X009344Y001475D02*
X009664Y001475D01*
X009664Y001794D02*
X009344Y001794D01*
X009344Y002113D02*
X009664Y002113D01*
X009664Y002432D02*
X009344Y002432D01*
X009344Y002751D02*
X009664Y002751D01*
X010344Y000837D02*
X010664Y000837D01*
X010344Y000837D02*
X010344Y003057D01*
X010664Y003057D01*
X010664Y000837D01*
X010664Y001156D02*
X010344Y001156D01*
X010344Y001475D02*
X010664Y001475D01*
X010664Y001794D02*
X010344Y001794D01*
X010344Y002113D02*
X010664Y002113D01*
X010664Y002432D02*
X010344Y002432D01*
X010344Y002751D02*
X010664Y002751D01*
X011344Y000837D02*
X011664Y000837D01*
X011344Y000837D02*
X011344Y003057D01*
X011664Y003057D01*
X011664Y000837D01*
X011664Y001156D02*
X011344Y001156D01*
X011344Y001475D02*
X011664Y001475D01*
X011664Y001794D02*
X011344Y001794D01*
X011344Y002113D02*
X011664Y002113D01*
X011664Y002432D02*
X011344Y002432D01*
X011344Y002751D02*
X011664Y002751D01*
X012344Y000837D02*
X012664Y000837D01*
X012344Y000837D02*
X012344Y003057D01*
X012664Y003057D01*
X012664Y000837D01*
X012664Y001156D02*
X012344Y001156D01*
X012344Y001475D02*
X012664Y001475D01*
X012664Y001794D02*
X012344Y001794D01*
X012344Y002113D02*
X012664Y002113D01*
X012664Y002432D02*
X012344Y002432D01*
X012344Y002751D02*
X012664Y002751D01*
X013344Y000837D02*
X013664Y000837D01*
X013344Y000837D02*
X013344Y003057D01*
X013664Y003057D01*
X013664Y000837D01*
X013664Y001156D02*
X013344Y001156D01*
X013344Y001475D02*
X013664Y001475D01*
X013664Y001794D02*
X013344Y001794D01*
X013344Y002113D02*
X013664Y002113D01*
X013664Y002432D02*
X013344Y002432D01*
X013344Y002751D02*
X013664Y002751D01*
X014344Y000837D02*
X014664Y000837D01*
X014344Y000837D02*
X014344Y003057D01*
X014664Y003057D01*
X014664Y000837D01*
X014664Y001156D02*
X014344Y001156D01*
X014344Y001475D02*
X014664Y001475D01*
X014664Y001794D02*
X014344Y001794D01*
X014344Y002113D02*
X014664Y002113D01*
X014664Y002432D02*
X014344Y002432D01*
X014344Y002751D02*
X014664Y002751D01*
X015344Y000837D02*
X015664Y000837D01*
X015344Y000837D02*
X015344Y003057D01*
X015664Y003057D01*
X015664Y000837D01*
X015664Y001156D02*
X015344Y001156D01*
X015344Y001475D02*
X015664Y001475D01*
X015664Y001794D02*
X015344Y001794D01*
X015344Y002113D02*
X015664Y002113D01*
X015664Y002432D02*
X015344Y002432D01*
X015344Y002751D02*
X015664Y002751D01*
X016344Y000837D02*
X016664Y000837D01*
X016344Y000837D02*
X016344Y003057D01*
X016664Y003057D01*
X016664Y000837D01*
X016664Y001156D02*
X016344Y001156D01*
X016344Y001475D02*
X016664Y001475D01*
X016664Y001794D02*
X016344Y001794D01*
X016344Y002113D02*
X016664Y002113D01*
X016664Y002432D02*
X016344Y002432D01*
X016344Y002751D02*
X016664Y002751D01*
X017344Y000837D02*
X017664Y000837D01*
X017344Y000837D02*
X017344Y003057D01*
X017664Y003057D01*
X017664Y000837D01*
X017664Y001156D02*
X017344Y001156D01*
X017344Y001475D02*
X017664Y001475D01*
X017664Y001794D02*
X017344Y001794D01*
X017344Y002113D02*
X017664Y002113D01*
X017664Y002432D02*
X017344Y002432D01*
X017344Y002751D02*
X017664Y002751D01*
X018344Y000837D02*
X018664Y000837D01*
X018344Y000837D02*
X018344Y003057D01*
X018664Y003057D01*
X018664Y000837D01*
X018664Y001156D02*
X018344Y001156D01*
X018344Y001475D02*
X018664Y001475D01*
X018664Y001794D02*
X018344Y001794D01*
X018344Y002113D02*
X018664Y002113D01*
X018664Y002432D02*
X018344Y002432D01*
X018344Y002751D02*
X018664Y002751D01*
X019344Y000837D02*
X019664Y000837D01*
X019344Y000837D02*
X019344Y003057D01*
X019664Y003057D01*
X019664Y000837D01*
X019664Y001156D02*
X019344Y001156D01*
X019344Y001475D02*
X019664Y001475D01*
X019664Y001794D02*
X019344Y001794D01*
X019344Y002113D02*
X019664Y002113D01*
X019664Y002432D02*
X019344Y002432D01*
X019344Y002751D02*
X019664Y002751D01*
X020344Y000837D02*
X020664Y000837D01*
X020344Y000837D02*
X020344Y003057D01*
X020664Y003057D01*
X020664Y000837D01*
X020664Y001156D02*
X020344Y001156D01*
X020344Y001475D02*
X020664Y001475D01*
X020664Y001794D02*
X020344Y001794D01*
X020344Y002113D02*
X020664Y002113D01*
X020664Y002432D02*
X020344Y002432D01*
X020344Y002751D02*
X020664Y002751D01*
X021344Y000837D02*
X021664Y000837D01*
X021344Y000837D02*
X021344Y003057D01*
X021664Y003057D01*
X021664Y000837D01*
X021664Y001156D02*
X021344Y001156D01*
X021344Y001475D02*
X021664Y001475D01*
X021664Y001794D02*
X021344Y001794D01*
X021344Y002113D02*
X021664Y002113D01*
X021664Y002432D02*
X021344Y002432D01*
X021344Y002751D02*
X021664Y002751D01*
X022344Y000837D02*
X022664Y000837D01*
X022344Y000837D02*
X022344Y003057D01*
X022664Y003057D01*
X022664Y000837D01*
X022664Y001156D02*
X022344Y001156D01*
X022344Y001475D02*
X022664Y001475D01*
X022664Y001794D02*
X022344Y001794D01*
X022344Y002113D02*
X022664Y002113D01*
X022664Y002432D02*
X022344Y002432D01*
X022344Y002751D02*
X022664Y002751D01*
X023344Y000837D02*
X023664Y000837D01*
X023344Y000837D02*
X023344Y003057D01*
X023664Y003057D01*
X023664Y000837D01*
X023664Y001156D02*
X023344Y001156D01*
X023344Y001475D02*
X023664Y001475D01*
X023664Y001794D02*
X023344Y001794D01*
X023344Y002113D02*
X023664Y002113D01*
X023664Y002432D02*
X023344Y002432D01*
X023344Y002751D02*
X023664Y002751D01*
X002664Y000837D02*
X002344Y000837D01*
X002344Y003057D01*
X002664Y003057D01*
X002664Y000837D01*
X002664Y001156D02*
X002344Y001156D01*
X002344Y001475D02*
X002664Y001475D01*
X002664Y001794D02*
X002344Y001794D01*
X002344Y002113D02*
X002664Y002113D01*
X002664Y002432D02*
X002344Y002432D01*
X002344Y002751D02*
X002664Y002751D01*
D12*
X001583Y001012D02*
X001937Y000500D01*
X024063Y000500D01*
X024417Y001012D01*
X024417Y011646D01*
X025500Y011646D01*
X025500Y019791D01*
X000500Y019791D01*
X000500Y011646D01*
X001583Y011646D01*
X001583Y001012D01*
X012016Y017626D02*
X012018Y017688D01*
X012024Y017751D01*
X012034Y017812D01*
X012048Y017873D01*
X012065Y017933D01*
X012086Y017992D01*
X012112Y018049D01*
X012140Y018104D01*
X012172Y018158D01*
X012208Y018209D01*
X012246Y018259D01*
X012288Y018305D01*
X012332Y018349D01*
X012380Y018390D01*
X012429Y018428D01*
X012481Y018462D01*
X012535Y018493D01*
X012591Y018521D01*
X012649Y018545D01*
X012708Y018566D01*
X012768Y018582D01*
X012829Y018595D01*
X012891Y018604D01*
X012953Y018609D01*
X013016Y018610D01*
X013078Y018607D01*
X013140Y018600D01*
X013202Y018589D01*
X013262Y018574D01*
X013322Y018556D01*
X013380Y018534D01*
X013437Y018508D01*
X013492Y018478D01*
X013545Y018445D01*
X013596Y018409D01*
X013644Y018370D01*
X013690Y018327D01*
X013733Y018282D01*
X013773Y018234D01*
X013810Y018184D01*
X013844Y018131D01*
X013875Y018077D01*
X013901Y018021D01*
X013925Y017963D01*
X013944Y017903D01*
X013960Y017843D01*
X013972Y017781D01*
X013980Y017720D01*
X013984Y017657D01*
X013984Y017595D01*
X013980Y017532D01*
X013972Y017471D01*
X013960Y017409D01*
X013944Y017349D01*
X013925Y017289D01*
X013901Y017231D01*
X013875Y017175D01*
X013844Y017121D01*
X013810Y017068D01*
X013773Y017018D01*
X013733Y016970D01*
X013690Y016925D01*
X013644Y016882D01*
X013596Y016843D01*
X013545Y016807D01*
X013492Y016774D01*
X013437Y016744D01*
X013380Y016718D01*
X013322Y016696D01*
X013262Y016678D01*
X013202Y016663D01*
X013140Y016652D01*
X013078Y016645D01*
X013016Y016642D01*
X012953Y016643D01*
X012891Y016648D01*
X012829Y016657D01*
X012768Y016670D01*
X012708Y016686D01*
X012649Y016707D01*
X012591Y016731D01*
X012535Y016759D01*
X012481Y016790D01*
X012429Y016824D01*
X012380Y016862D01*
X012332Y016903D01*
X012288Y016947D01*
X012246Y016993D01*
X012208Y017043D01*
X012172Y017094D01*
X012140Y017148D01*
X012112Y017203D01*
X012086Y017260D01*
X012065Y017319D01*
X012048Y017379D01*
X012034Y017440D01*
X012024Y017501D01*
X012018Y017564D01*
X012016Y017626D01*
D13*
X013000Y017626D03*
D14*
X015500Y018490D02*
X015500Y019010D01*
X016500Y019010D02*
X016500Y018490D01*
X017500Y018490D02*
X017500Y019010D01*
X018500Y019010D02*
X018500Y018490D01*
X019500Y018490D02*
X019500Y019010D01*
X020500Y019010D02*
X020500Y018490D01*
X021500Y018490D02*
X021500Y019010D01*
X022500Y019010D02*
X022500Y018490D01*
X023500Y018490D02*
X023500Y019010D01*
X024500Y019010D02*
X024500Y018490D01*
X024500Y016010D02*
X024500Y015490D01*
X023500Y015490D02*
X023500Y016010D01*
X022500Y016010D02*
X022500Y015490D01*
X021500Y015490D02*
X021500Y016010D01*
X020500Y016010D02*
X020500Y015490D01*
X019500Y015490D02*
X019500Y016010D01*
X018500Y016010D02*
X018500Y015490D01*
X017500Y015490D02*
X017500Y016010D01*
X016500Y016010D02*
X016500Y015490D01*
X015500Y015490D02*
X015500Y016010D01*
X015000Y013260D02*
X015000Y012740D01*
X014000Y012740D02*
X014000Y013260D01*
X013000Y013260D02*
X013000Y012740D01*
X012000Y012740D02*
X012000Y013260D01*
X011000Y013260D02*
X011000Y012740D01*
X010000Y012740D02*
X010000Y013260D01*
X009000Y013260D02*
X009000Y012740D01*
X008000Y012740D02*
X008000Y013260D01*
X006260Y013000D02*
X005740Y013000D01*
X005740Y012000D02*
X006260Y012000D01*
X006260Y011000D02*
X005740Y011000D01*
X005740Y010000D02*
X006260Y010000D01*
X006260Y009000D02*
X005740Y009000D01*
X005740Y008000D02*
X006260Y008000D01*
X006260Y007000D02*
X005740Y007000D01*
X008000Y006740D02*
X008000Y007260D01*
X009000Y007260D02*
X009000Y006740D01*
X010000Y006740D02*
X010000Y007260D01*
X011000Y007260D02*
X011000Y006740D01*
X012000Y006740D02*
X012000Y007260D01*
X013000Y007260D02*
X013000Y006740D01*
X014000Y006740D02*
X014000Y007260D01*
X015000Y007260D02*
X015000Y006740D01*
X016000Y006740D02*
X016000Y007260D01*
X017000Y007260D02*
X017000Y006740D01*
X018000Y006740D02*
X018000Y007260D01*
X019000Y007260D02*
X019000Y006740D01*
X020000Y006740D02*
X020000Y007260D01*
X021000Y007260D02*
X021000Y006740D01*
X022000Y006740D02*
X022000Y007260D01*
X023000Y007260D02*
X023000Y006740D01*
X023000Y012740D02*
X023000Y013260D01*
X022000Y013260D02*
X022000Y012740D01*
X021000Y012740D02*
X021000Y013260D01*
X020000Y013260D02*
X020000Y012740D01*
X019000Y012740D02*
X019000Y013260D01*
X018000Y013260D02*
X018000Y012740D01*
X017000Y012740D02*
X017000Y013260D01*
X016000Y013260D02*
X016000Y012740D01*
X003260Y013000D02*
X002740Y013000D01*
X002740Y012000D02*
X003260Y012000D01*
X003260Y011000D02*
X002740Y011000D01*
X002740Y010000D02*
X003260Y010000D01*
X003260Y009000D02*
X002740Y009000D01*
X002740Y008000D02*
X003260Y008000D01*
X003260Y007000D02*
X002740Y007000D01*
D15*
X008650Y014250D03*
X009000Y014250D03*
X009350Y014250D03*
X009350Y015750D03*
X009000Y015750D03*
X008650Y015750D03*
X008650Y017250D03*
X009000Y017250D03*
X009350Y017250D03*
X009350Y018750D03*
X009000Y018750D03*
X008650Y018750D03*
D16*
X004500Y018000D03*
D17*
X003614Y016720D03*
X005386Y016720D03*
X005386Y019280D03*
X003614Y019280D03*
D18*
X018000Y014000D03*
D19*
X004000Y010850D03*
X004000Y010500D03*
X004000Y010150D03*
D20*
X002500Y004250D03*
X023500Y004250D03*
D21*
X006000Y018250D03*
X003000Y018250D03*
M02*
